<?xml version="1.0" encoding="UTF-8" standalone="no"?><!DOCTYPE svg PUBLIC "-//W3C//DTD SVG 1.1//EN" "http://www.w3.org/Graphics/SVG/1.1/DTD/svg11.dtd"><svg width="100%" height="100%" viewBox="0 0 388 388" version="1.1" xmlns="http://www.w3.org/2000/svg" xmlns:xlink="http://www.w3.org/1999/xlink" xml:space="preserve" xmlns:serif="http://www.serif.com/" style="fill-rule:evenodd;clip-rule:evenodd;stroke-linejoin:round;stroke-miterlimit:1.41421;"><path id="ico1" d="M100.026,87.356c0.219,0.18 0.431,0.373 0.636,0.578l84.338,84.338l0,-85.844c-19.621,-4.148 -34.365,-21.58 -34.365,-42.428c0,-23.934 19.431,-43.365 43.365,-43.365c23.934,0 43.365,19.431 43.365,43.365c0,20.848 -14.744,38.28 -34.365,42.428l0,85.844l84.338,-84.338c3.512,-3.512 9.216,-3.512 12.728,0c3.512,3.512 3.512,9.216 0,12.728l-84.338,84.338l85.844,0c4.148,-19.621 21.58,-34.365 42.428,-34.365c23.934,0 43.365,19.431 43.365,43.365c0,23.934 -19.431,43.365 -43.365,43.365c-20.848,0 -38.28,-14.744 -42.428,-34.365l-85.844,0l84.338,84.338c3.512,3.512 3.512,9.216 0,12.728c-3.512,3.512 -9.216,3.512 -12.728,0l-84.338,-84.338l0,85.844c19.621,4.148 34.365,21.58 34.365,42.428c0,23.934 -19.431,43.365 -43.365,43.365c-23.934,0 -43.365,-19.431 -43.365,-43.365c0,-20.848 14.744,-38.28 34.365,-42.428l0,-85.844l-84.338,84.338c-3.512,3.512 -9.216,3.512 -12.728,0c-3.512,-3.512 -3.512,-9.216 0,-12.728l84.338,-84.338l-85.844,0c-4.149,19.621 -21.58,34.365 -42.428,34.365c-23.934,0 -43.365,-19.431 -43.365,-43.365c0,-23.934 19.431,-43.365 43.365,-43.365c20.848,0 38.28,14.744 42.428,34.365l85.844,0l-84.338,-84.338c-0.205,-0.205 -0.398,-0.417 -0.578,-0.636l-11.368,11.367l-31.819,-67.175l67.175,31.82l-11.318,11.318Z" style="fill:#fff;"/></svg>