<?xml version="1.0" encoding="UTF-8" standalone="no"?><!DOCTYPE svg PUBLIC "-//W3C//DTD SVG 1.1//EN" "http://www.w3.org/Graphics/SVG/1.1/DTD/svg11.dtd"><svg width="100%" height="100%" viewBox="0 0 350 350" version="1.1" xmlns="http://www.w3.org/2000/svg" xmlns:xlink="http://www.w3.org/1999/xlink" xml:space="preserve" xmlns:serif="http://www.serif.com/" style="fill-rule:evenodd;clip-rule:evenodd;stroke-linejoin:round;stroke-miterlimit:1.41421;"><path id="ico2" d="M158.853,175c0,-46.607 -13.733,-127.424 -13.733,-139.82c0,-19.417 13.424,-35.18 29.959,-35.18c16.535,0 29.959,15.763 29.959,35.18c0,12.396 -13.733,93.213 -13.733,139.82c0,46.607 13.733,127.424 13.733,139.82c0,19.417 -13.424,35.18 -29.959,35.18c-16.535,0 -29.959,-15.763 -29.959,-35.18c0,-12.396 13.733,-93.213 13.733,-139.82Zm176.334,-116.373c3.773,0.809 4.957,0.82 8.105,2.467c6.934,3.628 8.904,10.7 3.948,15.685c-1.526,1.536 -3.698,2.731 -5.652,3.963c-38.625,24.492 -61.443,58.925 -61.622,93.815c-0.186,35.988 24.147,71.823 64.408,96.43l2.866,2.234c3.281,4.395 3.812,9.647 -0.821,13.599c-5.487,4.679 -16.461,6.108 -24.367,3.205c-2.443,-0.897 -4.677,-2.379 -4.693,-2.389c-65.516,-40.415 -91.676,-103.966 -63.203,-160.542c12.321,-24.482 34.434,-46.93 63.203,-64.73l1.073,-0.658l3.62,-1.731c4.153,-1.124 4.174,-1.128 8.628,-1.585c1.502,0.079 3.005,0.158 4.507,0.237Zm-311.244,0.221c1.387,0.376 2.856,0.648 4.163,1.127c2.443,0.897 4.677,2.379 4.693,2.389c46.567,28.726 74.694,70.014 74.911,112.115c0.218,42.403 -27.896,84.424 -75.984,113.815l-3.62,1.731c-9.583,2.594 -22.095,1.108 -26.622,-5.709c-2.383,-3.589 -1.785,-7.857 1.434,-11.095c2.896,-2.914 7.313,-4.96 11.033,-7.492c44.796,-30.487 65.122,-75.177 52.294,-116.586c-8.237,-26.59 -29.865,-51.43 -60.461,-70.13l-2.866,-2.234c-1.713,-2.294 -2.524,-2.845 -2.858,-5.435c-0.613,-4.74 3.751,-9.706 10.624,-11.797c3.673,-1.119 4.827,-0.948 8.794,-1.157c1.488,0.153 2.976,0.305 4.465,0.458Z" style="fill:#fff;fill-rule:nonzero;"/></svg>