<?xml version="1.0" encoding="UTF-8" standalone="no"?><!DOCTYPE svg PUBLIC "-//W3C//DTD SVG 1.1//EN" "http://www.w3.org/Graphics/SVG/1.1/DTD/svg11.dtd"><svg width="100%" height="100%" viewBox="0 0 334 334" version="1.1" xmlns="http://www.w3.org/2000/svg" xmlns:xlink="http://www.w3.org/1999/xlink" xml:space="preserve" xmlns:serif="http://www.serif.com/" style="fill-rule:evenodd;clip-rule:evenodd;stroke-linejoin:round;stroke-miterlimit:1.41421;"><path id="ico3" d="M82.382,333.3l-81.657,0c0.117,-77.972 41.568,-144.97 100.67,-173.983c-12.121,-16.762 -19.405,-38.24 -19.405,-61.644c0,-53.521 38.092,-96.973 85.01,-96.973c46.918,0 85.01,43.452 85.01,96.973c0,23.404 -7.284,44.882 -19.405,61.644c59.102,29.013 100.552,96.011 100.67,173.983l-81.657,0c0.259,-3.078 0.392,-6.198 0.392,-9.354c0,-53.52 -38.092,-96.972 -85.01,-96.972c-46.918,0 -85.01,43.452 -85.01,96.972c0,3.156 0.133,6.276 0.392,9.354Z" style="fill:#fff;"/></svg>