<?xml version="1.0" encoding="UTF-8" standalone="no"?><!DOCTYPE svg PUBLIC "-//W3C//DTD SVG 1.1//EN" "http://www.w3.org/Graphics/SVG/1.1/DTD/svg11.dtd"><svg width="100%" height="100%" viewBox="0 0 302 302" version="1.1" xmlns="http://www.w3.org/2000/svg" xmlns:xlink="http://www.w3.org/1999/xlink" xml:space="preserve" xmlns:serif="http://www.serif.com/" style="fill-rule:evenodd;clip-rule:evenodd;stroke-linejoin:round;stroke-miterlimit:1.41421;"><g id="ToggleSidebarBtn"><rect id="background" x="0.613" y="0.613" width="300.774" height="300.774" style="fill:#7e7e7e;"/><g id="Stripes"><path d="M248.827,52.246c0,-6.492 -5.289,-11.78 -11.781,-11.78l-172.092,0c-6.492,0 -11.781,5.288 -11.781,11.78l0,23.561c0,6.491 5.289,11.78 11.781,11.78l172.092,0c6.492,0 11.781,-5.289 11.781,-11.78l0,-23.561Z" style="fill:#fff;"/><path d="M248.827,139.22c0,-6.492 -5.289,-11.781 -11.781,-11.781l-172.092,0c-6.492,0 -11.781,5.289 -11.781,11.781l0,23.56c0,6.492 5.289,11.781 11.781,11.781l172.092,0c6.492,0 11.781,-5.289 11.781,-11.781l0,-23.56Z" style="fill:#fff;"/><path d="M248.827,226.193c0,-6.491 -5.289,-11.78 -11.781,-11.78l-172.092,0c-6.492,0 -11.781,5.289 -11.781,11.78l0,23.561c0,6.492 5.289,11.78 11.781,11.78l172.092,0c6.492,0 11.781,-5.288 11.781,-11.78l0,-23.561Z" style="fill:#fff;"/></g></g></svg>